<svg viewBox="0 0 195 198" fill="none" xmlns="http://www.w3.org/2000/svg">
<ellipse cx="9.00416" cy="8.62898" rx="9.00416" ry="8.62898" fill="#3D5CC9"/>
<ellipse cx="39.0181" cy="8.62898" rx="9.00416" ry="8.62898" fill="#3D5CC9"/>
<ellipse cx="69.0319" cy="8.62898" rx="9.00416" ry="8.62898" fill="#3D5CC9"/>
<ellipse cx="99.0458" cy="8.62898" rx="9.00416" ry="8.62898" fill="#3D5CC9"/>
<ellipse cx="129.06" cy="8.62898" rx="9.00416" ry="8.62898" fill="#3D5CC9"/>
<ellipse cx="159.073" cy="8.62898" rx="9.00416" ry="8.62898" fill="#3D5CC9"/>
<ellipse cx="185.336" cy="8.62898" rx="9.00416" ry="8.62898" fill="#3D5CC9"/>
<ellipse cx="9.00416" cy="38.6429" rx="9.00416" ry="8.62898" fill="#3D5CC9"/>
<ellipse cx="39.0181" cy="38.6428" rx="9.00416" ry="8.62898" fill="#3D5CC9"/>
<ellipse cx="69.0319" cy="38.6428" rx="9.00416" ry="8.62898" fill="#3D5CC9"/>
<ellipse cx="99.0458" cy="38.6428" rx="9.00416" ry="8.62898" fill="#3D5CC9"/>
<ellipse cx="129.06" cy="38.6428" rx="9.00416" ry="8.62898" fill="#3D5CC9"/>
<ellipse cx="159.073" cy="38.6428" rx="9.00416" ry="8.62898" fill="#3D5CC9"/>
<ellipse cx="185.336" cy="38.6428" rx="9.00416" ry="8.62898" fill="#3D5CC9"/>
<ellipse cx="9.00416" cy="68.6567" rx="9.00416" ry="8.62898" fill="#3D5CC9"/>
<ellipse cx="39.0181" cy="68.6567" rx="9.00416" ry="8.62898" fill="#3D5CC9"/>
<ellipse cx="69.0319" cy="68.6567" rx="9.00416" ry="8.62898" fill="#3D5CC9"/>
<ellipse cx="99.0458" cy="68.6567" rx="9.00416" ry="8.62898" fill="#3D5CC9"/>
<ellipse cx="129.06" cy="68.6567" rx="9.00416" ry="8.62898" fill="#3D5CC9"/>
<ellipse cx="159.073" cy="68.6567" rx="9.00416" ry="8.62898" fill="#3D5CC9"/>
<ellipse cx="185.336" cy="68.6567" rx="9.00416" ry="8.62898" fill="#3D5CC9"/>
<ellipse cx="9.00416" cy="98.6705" rx="9.00416" ry="8.62898" fill="#3D5CC9"/>
<ellipse cx="39.0181" cy="98.6705" rx="9.00416" ry="8.62898" fill="#3D5CC9"/>
<ellipse cx="69.0319" cy="98.6705" rx="9.00416" ry="8.62898" fill="#3D5CC9"/>
<ellipse cx="99.0458" cy="98.6705" rx="9.00416" ry="8.62898" fill="#3D5CC9"/>
<ellipse cx="129.06" cy="98.6705" rx="9.00416" ry="8.62898" fill="#3D5CC9"/>
<ellipse cx="159.073" cy="98.6705" rx="9.00416" ry="8.62898" fill="#3D5CC9"/>
<ellipse cx="185.336" cy="98.6705" rx="9.00416" ry="8.62898" fill="#3D5CC9"/>
<ellipse cx="9.00416" cy="128.684" rx="9.00416" ry="8.62898" fill="#3D5CC9"/>
<ellipse cx="39.0181" cy="128.684" rx="9.00416" ry="8.62898" fill="#3D5CC9"/>
<ellipse cx="69.0319" cy="128.684" rx="9.00416" ry="8.62898" fill="#3D5CC9"/>
<ellipse cx="99.0458" cy="128.684" rx="9.00416" ry="8.62898" fill="#3D5CC9"/>
<ellipse cx="129.06" cy="128.684" rx="9.00416" ry="8.62898" fill="#3D5CC9"/>
<ellipse cx="159.073" cy="128.684" rx="9.00416" ry="8.62898" fill="#3D5CC9"/>
<ellipse cx="185.336" cy="128.684" rx="9.00416" ry="8.62898" fill="#3D5CC9"/>
<ellipse cx="9.00416" cy="159.073" rx="9.00416" ry="8.62898" fill="#3D5CC9"/>
<ellipse cx="39.0181" cy="159.073" rx="9.00416" ry="8.62898" fill="#3D5CC9"/>
<ellipse cx="69.0319" cy="159.073" rx="9.00416" ry="8.62898" fill="#3D5CC9"/>
<ellipse cx="99.0458" cy="159.073" rx="9.00416" ry="8.62898" fill="#3D5CC9"/>
<ellipse cx="129.06" cy="159.073" rx="9.00416" ry="8.62898" fill="#3D5CC9"/>
<ellipse cx="159.073" cy="159.073" rx="9.00416" ry="8.62898" fill="#3D5CC9"/>
<ellipse cx="185.336" cy="159.073" rx="9.00416" ry="8.62898" fill="#3D5CC9"/>
<ellipse cx="9.00416" cy="189.087" rx="9.00416" ry="8.62898" fill="#3D5CC9"/>
<ellipse cx="39.0181" cy="189.087" rx="9.00416" ry="8.62898" fill="#3D5CC9"/>
<ellipse cx="69.0319" cy="189.087" rx="9.00416" ry="8.62898" fill="#3D5CC9"/>
<ellipse cx="99.0458" cy="189.087" rx="9.00416" ry="8.62898" fill="#3D5CC9"/>
<ellipse cx="129.06" cy="189.087" rx="9.00416" ry="8.62898" fill="#3D5CC9"/>
<ellipse cx="159.073" cy="189.087" rx="9.00416" ry="8.62898" fill="#3D5CC9"/>
<ellipse cx="185.336" cy="189.087" rx="9.00416" ry="8.62898" fill="#3D5CC9"/>
</svg>
