<svg viewBox="0 0 163 54" fill="none" xmlns="http://www.w3.org/2000/svg">
<title>My bank</title>
<path d="M65.494 32V19.4H67.906L73.27 28.292H71.992L77.266 19.4H79.66L79.696 32H76.96L76.942 23.594H77.446L73.234 30.668H71.92L67.618 23.594H68.23V32H65.494ZM87.2574 32V26.852L87.9234 28.616L82.3794 19.4H85.4754L89.7234 26.474H87.9414L92.2074 19.4H95.0694L89.5254 28.616L90.1734 26.852V32H87.2574ZM104.267 32V19.4H110.423C112.007 19.4 113.195 19.7 113.987 20.3C114.791 20.9 115.193 21.692 115.193 22.676C115.193 23.336 115.031 23.912 114.707 24.404C114.383 24.884 113.939 25.256 113.375 25.52C112.811 25.784 112.163 25.916 111.431 25.916L111.773 25.178C112.565 25.178 113.267 25.31 113.879 25.574C114.491 25.826 114.965 26.204 115.301 26.708C115.649 27.212 115.823 27.83 115.823 28.562C115.823 29.642 115.397 30.488 114.545 31.1C113.693 31.7 112.439 32 110.783 32H104.267ZM107.165 29.804H110.567C111.323 29.804 111.893 29.684 112.277 29.444C112.673 29.192 112.871 28.796 112.871 28.256C112.871 27.728 112.673 27.338 112.277 27.086C111.893 26.822 111.323 26.69 110.567 26.69H106.949V24.566H110.063C110.771 24.566 111.311 24.446 111.683 24.206C112.067 23.954 112.259 23.576 112.259 23.072C112.259 22.58 112.067 22.214 111.683 21.974C111.311 21.722 110.771 21.596 110.063 21.596H107.165V29.804ZM117.815 32L123.431 19.4H126.311L131.945 32H128.885L124.277 20.876H125.429L120.803 32H117.815ZM120.623 29.3L121.397 27.086H127.877L128.669 29.3H120.623ZM134.692 32V19.4H137.104L144.538 28.472H143.368V19.4H146.248V32H143.854L136.402 22.928H137.572V32H134.692ZM153.279 29.12L153.117 25.754L159.147 19.4H162.387L156.951 25.25L155.331 26.978L153.279 29.12ZM150.669 32V19.4H153.567V32H150.669ZM159.291 32L154.809 26.51L156.717 24.44L162.693 32H159.291Z" fill="#3D5CC9"/>
<path d="M29.4299 34.344V22.734H24.516V34.344H29.4299ZM21.816 34.344V22.734H16.9019V34.344H21.816ZM19.17 17.874H34.8299L26.946 13.554L19.17 17.874ZM26.9999 2.70001C13.554 2.70001 2.69995 13.608 2.69995 27C2.69995 40.446 13.554 51.3 26.9999 51.3C40.4459 51.3 51.2999 40.446 51.2999 27C51.2999 13.608 40.4459 2.70001 26.9999 2.70001ZM10.53 38.556V36.072H12.204V34.344H14.2019V21.006H12.204V17.874L26.9999 9.39601L41.8499 17.874V21.006H39.852V34.398H41.8499V36.126H43.5239V38.61H10.53V38.556ZM37.0979 34.344V22.734H32.1839V34.344H37.0979Z" fill="#3D5CC9"/>
</svg>
